<svg viewBox="-232.05325930620194 -99 697.1702805827978 200" xmlns="http://www.w3.org/2000/svg" xmlns:xlink="http://www.w3.org/1999/xlink" version="1.1" class="jsx-2263963463 artboard-inner" style="width: 338px; height: 96.9634px; max-height: 100%;"><g transform="translate(-4.255319148936171 29.723404255319167) scale(1.4775413711583925)" fill="#FFFFFF"><g id="line1"><path d="M41.256-34.200L41.256-50.400L32.616-50.400L30.960-46.512C27.648-49.896 22.752-51.120 18.648-51.120C10.584-51.120 3.240-46.368 3.240-36.576C3.240-27.288 8.064-22.320 21.168-20.016C28.368-18.792 30.096-17.280 30.096-14.040C30.096-10.584 26.712-9.000 22.608-9.000C17.568-9.000 14.040-11.160 14.040-16.200L2.880-16.200L2.880 0L11.520 0L13.248-3.960C16.776-0.432 22.032 0.720 25.848 0.720C33.912 0.720 41.616-4.032 41.616-13.824C41.616-23.112 36.432-28.152 23.328-30.384C16.704-31.536 14.760-33.336 14.760-36.504C14.760-39.960 17.784-41.400 21.888-41.400C26.784-41.400 30.096-39.384 30.096-34.200Z"></path><path d="M90.670 0L90.670-9.000L84.910-9.000L84.910-23.256C84.910-33.120 79.654-38.160 71.734-38.160C67.414-38.160 63.958-36.720 61.582-33.840L60.070-37.440L46.390-37.440L46.390-28.440L52.150-28.440L52.150-9.000L46.390-9.000L46.390 0L68.350 0L68.350-9.000L62.590-9.000L62.590-23.976C62.590-27.504 64.966-29.160 68.566-29.160C72.166-29.160 74.470-27.504 74.470-23.976L74.470 0Z"></path><path d="M92.563-11.016C92.563-3.240 97.603 0.720 105.307 0.720C109.987 0.720 113.659-0.720 115.891-3.528L117.403 0L130.363 0L130.363-9.000L125.323-9.000L125.323-24.120C125.323-33.408 119.203-38.160 109.843-38.160C99.763-38.160 94.363-33.696 94.363-25.560L104.803-25.560C104.803-28.368 106.099-29.592 109.843-29.592C112.939-29.592 114.883-27.792 114.883-24.768L114.883-19.584C112.651-21.672 109.339-22.752 105.379-22.752C97.603-22.752 92.563-18.792 92.563-11.016ZM103.003-11.376C103.003-13.536 105.307-14.472 108.907-14.472C112.507-14.472 114.883-13.536 114.883-11.376C114.883-9.216 112.507-8.280 108.907-8.280C105.307-8.280 103.003-9.216 103.003-11.376Z"></path><path d="M171.497-23.256C171.497-33.120 166.313-38.160 158.321-38.160C154.001-38.160 150.473-36.720 148.169-33.840L146.657-37.440L132.977-37.440L132.977-28.440L138.737-28.440L138.737 5.400L132.977 5.400L132.977 14.400L154.937 14.400L154.937 5.400L149.177 5.400L149.177-2.520C151.409-0.360 154.505 0.720 158.249 0.720C166.313 0.720 171.497-4.320 171.497-14.184ZM161.057-13.464C161.057-9.936 158.753-8.280 155.081-8.280C151.553-8.280 149.177-9.936 149.177-13.464L149.177-23.976C149.177-27.504 151.553-29.160 155.153-29.160C158.753-29.160 161.057-27.504 161.057-23.976Z"></path><path d="M207.950-25.200L207.950-37.440L200.030-37.440L198.518-33.840C196.646-36.360 193.550-38.160 188.798-38.160C180.590-38.160 176.630-32.328 176.630-27.288C176.630-17.280 184.910-15.696 191.102-14.472C194.846-13.752 197.870-13.104 197.870-10.800C197.870-8.856 196.070-7.920 192.614-7.920C189.158-7.920 186.710-9.216 186.710-12.240L176.270-12.240L176.270 0L184.190 0L185.702-3.528C187.790-0.720 191.246 0.720 195.782 0.720C202.622 0.720 208.310-3.528 208.310-10.224C208.310-19.872 200.678-21.600 194.558-22.824C190.454-23.616 187.070-24.192 187.070-26.640C187.070-28.440 188.510-29.520 191.966-29.520C195.422-29.520 197.510-28.224 197.510-25.200Z"></path><path d="M227.484-53.280L211.284-53.280L211.284-44.280L217.044-44.280L217.044-9.000L211.284-9.000L211.284 0L233.244 0L233.244-9.000L227.484-9.000L227.484-23.976C227.484-27.504 229.860-29.160 233.460-29.160C237.060-29.160 239.364-27.504 239.364-23.976L239.364 0L255.564 0L255.564-9.000L249.804-9.000L249.804-23.256C249.804-33.120 244.548-38.160 236.628-38.160C232.884-38.160 229.716-37.080 227.484-34.848Z"></path><path d="M289.858-23.256C289.858-33.120 283.378-38.160 273.514-38.160C263.578-38.160 257.098-33.120 257.098-23.256L257.098-14.184C257.098-4.320 263.578 0.720 273.442 0.720C283.378 0.720 289.858-4.320 289.858-14.184ZM279.418-13.464C279.418-9.936 277.114-8.280 273.442-8.280C269.914-8.280 267.538-9.936 267.538-13.464L267.538-23.976C267.538-27.504 269.914-29.160 273.514-29.160C277.114-29.160 279.418-27.504 279.418-23.976Z"></path><path d="M308.311-28.440L317.671-28.440L317.671-37.440L308.311-37.440L308.311-50.688L297.871-47.520L297.871-37.440L292.111-37.440L292.111-28.440L297.871-28.440L297.871-13.464C297.871-3.168 301.759 2.448 317.671 0L317.671-8.568C310.543-8.208 308.311-8.352 308.311-13.104Z"></path></g></g><g transform="translate(-232.05318459277248 -99) scale(2.222222222222222)" id="logomark"><g fill="#FFFFFF"><path d="M5.96 22.6l10.13 17.45L38.55.46C24.6 2.46 12.71 10.87 5.96 22.6zM34.62 17.52h46.01C72.41 6.86 59.5 0 45 0h-.44l-9.94 17.52zM63.74 22.52l22.85 39.69C88.79 56.9 90 51.09 90 45c0-8.18-2.19-15.86-6.01-22.48H63.74zM51.08 89.59C65.12 87.7 77.09 79.33 83.92 67.6L73.819 50.06 51.08 89.59zM9.37 72.48C17.59 83.14 30.5 90 45 90h.07l10.08-17.52H9.37zM0 45c0 8.18 2.19 15.86 6.01 22.48h20.23L3.32 28.01A44.85 44.85 0 0 0 0 45z"></path></g></g></svg>